<svg version="1.1" xmlns="http://www.w3.org/2000/svg" xmlns:xlink="http://www.w3.org/1999/xlink" x="0px" y="0px"
	 viewBox="0 0 330.8 341.5" style="enable-background:new 0 0 330.8 341.5;" xml:space="preserve">
<style type="text/css">
	.st0{fill:#414042;stroke:#414042;stroke-miterlimit:10;}
	.st1{fill:#6D6E71;stroke:#6D6E71;stroke-miterlimit:10;}
	.st2{fill:#58595B;stroke:#58595B;stroke-miterlimit:10;}
	.st3{fill:#17A554;stroke:#17A554;}
	.st4{fill:#EA212D;stroke:#EA212D;}
	.st5{fill:#2F3490;stroke:#2F3490;}
	.st6{fill:#1DAFEC;stroke:#1DAFEC;}
	.st7{fill:#E9168C;stroke:#E9168C;}
	.st8{fill:#FEF035;stroke:#FEF035;}
</style>
<g>
	<polygon class="st0" points="163.4,162.4 163.4,270.6 70.1,224.4 70.1,118.3 	"/>
	<polygon class="st1" points="163.4,162.4 163.4,270.6 256.2,223.9 256.2,118 	"/>
	<polygon class="st2" points="162.7,71.8 70.1,118.3 163.4,162.4 256.2,118 	"/>
	<polygon class="st3" points="256.2,118 256.2,223.9 330.3,186.7 330.3,154.7 	"/>
	<polygon class="st4" points="256.2,118 256.2,46.7 234.3,35.8 162.7,71.8 	"/>
	<polygon class="st3" points="70.1,118.3 0.5,153.3 0.5,190 70.1,224.4 	"/>
	<polygon class="st5" points="162.7,71.8 92.4,37 70.1,48.3 70.1,118.3 	"/>
	<polygon class="st6" points="70.1,48.3 0.5,83.8 0.5,153.3 70.1,118.3 	"/>
	<polygon class="st7" points="234.3,35.8 163.9,0.6 92.4,37 162.7,71.8 	"/>
	<polygon class="st8" points="330.3,154.7 330.3,83.8 256.2,46.7 256.2,118 	"/>
	<polygon class="st4" points="70.1,224.4 70.1,294.1 93.4,305.7 163.4,270.6 	"/>
	<polygon class="st8" points="0.5,190 0.5,259.3 70.1,294.1 70.1,224.4 	"/>
	<polygon class="st5" points="163.4,270.6 235.7,306.4 256.2,296.5 256.2,223.9 	"/>
	<polygon class="st7" points="93.4,305.7 163.9,341 235.7,306.4 163.4,270.6 	"/>
	<polygon class="st6" points="256.2,296.5 330.3,260.8 330.3,186.7 256.2,223.9 	"/>
</g>
</svg>